<mxfile host="app.diagrams.net" modified="2020-12-17T12:06:27.820Z" agent="5.0 (Windows NT 10.0; Win64; x64) AppleWebKit/537.36 (KHTML, like Gecko) Chrome/87.0.4280.88 Safari/537.36" etag="TVMy2wTnAB5N8Bx0DWyC" version="13.9.1" type="github">
  <diagram name="Page-1" id="f1b7ffb7-ca1e-a977-7cf5-a751b3c06c05">
    <mxGraphModel dx="2248" dy="1931" grid="1" gridSize="10" guides="1" tooltips="1" connect="1" arrows="1" fold="1" page="1" pageScale="1" pageWidth="826" pageHeight="1169" background="#ffffff" math="0" shadow="0">
      <root>
        <mxCell id="0" />
        <mxCell id="OZHsr6LVreonw5MPas_F-94" value="vindue" parent="0" />
        <mxCell id="OZHsr6LVreonw5MPas_F-96" value="Window Title" style="strokeWidth=1;shadow=0;dashed=0;align=center;html=1;shape=mxgraph.mockup.containers.window;align=left;verticalAlign=top;spacingLeft=8;strokeColor2=#008cff;strokeColor3=#c4c4c4;fontColor=#666666;mainText=;fontSize=17;labelBackgroundColor=none;" vertex="1" parent="OZHsr6LVreonw5MPas_F-94">
          <mxGeometry x="-14" y="-30" width="840" height="710" as="geometry" />
        </mxCell>
        <mxCell id="OZHsr6LVreonw5MPas_F-97" value="" style="shape=ext;double=1;rounded=0;whiteSpace=wrap;html=1;fontSize=11;" vertex="1" parent="OZHsr6LVreonw5MPas_F-94">
          <mxGeometry x="450" y="290" width="120" height="80" as="geometry" />
        </mxCell>
        <mxCell id="OZHsr6LVreonw5MPas_F-98" value="" style="whiteSpace=wrap;html=1;fontSize=11;fillColor=#B3B3B3;" vertex="1" parent="OZHsr6LVreonw5MPas_F-94">
          <mxGeometry width="820" height="50" as="geometry" />
        </mxCell>
        <mxCell id="OZHsr6LVreonw5MPas_F-99" value="" style="whiteSpace=wrap;html=1;fontSize=11;fillColor=#B3B3B3;" vertex="1" parent="OZHsr6LVreonw5MPas_F-94">
          <mxGeometry x="-4" y="570" width="820" height="80" as="geometry" />
        </mxCell>
        <UserObject label="Link" id="OZHsr6LVreonw5MPas_F-100">
          <mxCell style="text;html=1;strokeColor=none;fillColor=none;whiteSpace=wrap;align=center;verticalAlign=middle;fontColor=#0000EE;fontStyle=4;" vertex="1" parent="OZHsr6LVreonw5MPas_F-94">
            <mxGeometry x="480" y="310" width="60" height="40" as="geometry" />
          </mxCell>
        </UserObject>
        <mxCell id="OZHsr6LVreonw5MPas_F-101" value="Link button" style="fillColor=none;strokeColor=none;html=1;fontColor=#0057D8;align=center;verticalAlign=middle;fontStyle=0;fontSize=12" vertex="1" parent="OZHsr6LVreonw5MPas_F-94">
          <mxGeometry x="500" y="600" width="86" height="33" as="geometry" />
        </mxCell>
        <mxCell id="OZHsr6LVreonw5MPas_F-102" value="Link button" style="fillColor=none;strokeColor=none;html=1;fontColor=#0057D8;align=center;verticalAlign=middle;fontStyle=0;fontSize=12" vertex="1" parent="OZHsr6LVreonw5MPas_F-94">
          <mxGeometry x="470" y="310" width="86" height="33" as="geometry" />
        </mxCell>
        <mxCell id="OZHsr6LVreonw5MPas_F-103" value="Link button" style="fillColor=none;strokeColor=none;html=1;fontColor=#0057D8;align=center;verticalAlign=middle;fontStyle=0;fontSize=12" vertex="1" parent="OZHsr6LVreonw5MPas_F-94">
          <mxGeometry x="413" y="600" width="86" height="33" as="geometry" />
        </mxCell>
        <mxCell id="OZHsr6LVreonw5MPas_F-104" value="Link button" style="fillColor=none;strokeColor=none;html=1;fontColor=#0057D8;align=center;verticalAlign=middle;fontStyle=0;fontSize=12" vertex="1" parent="OZHsr6LVreonw5MPas_F-94">
          <mxGeometry x="320" y="600" width="86" height="33" as="geometry" />
        </mxCell>
        <mxCell id="OZHsr6LVreonw5MPas_F-105" value="Link button" style="fillColor=none;strokeColor=none;html=1;fontColor=#0057D8;align=center;verticalAlign=middle;fontStyle=0;fontSize=12" vertex="1" parent="OZHsr6LVreonw5MPas_F-94">
          <mxGeometry x="230" y="600" width="86" height="33" as="geometry" />
        </mxCell>
        <mxCell id="OZHsr6LVreonw5MPas_F-106" value="Text" style="text;html=1;strokeColor=none;fillColor=none;align=center;verticalAlign=middle;whiteSpace=wrap;rounded=0;fontSize=11;" vertex="1" parent="OZHsr6LVreonw5MPas_F-94">
          <mxGeometry x="160" y="130" width="100" height="70" as="geometry" />
        </mxCell>
        <mxCell id="OZHsr6LVreonw5MPas_F-64" value="De smÃ¥ bokse" style="" parent="0" />
        <mxCell id="OZHsr6LVreonw5MPas_F-66" value="Lorem ipsum dolor sit amet, consectetur adipisicing elit, sed do eiusmod tempor incididunt ut labore et dolore magna aliqua. Ut enim ad minim veniam, quis nostrud exercitation ullamco laboris nisi ut aliquip ex ea commodo consequat. Duis aute irure dolor in reprehenderit in voluptate velit esse cillum dolore eu fugiat nulla pariatur. Excepteur sint occaecat cupidatat non proident, sunt in culpa qui officia deserunt mollit anim id est laborum.&lt;br&gt;Sed ut perspiciatis unde omnis iste natus error sit voluptatem&amp;nbsp;" style="text;spacingTop=-5;whiteSpace=wrap;html=1;align=left;fontSize=12;fontFamily=Helvetica;fillColor=none;strokeColor=none;" vertex="1" parent="OZHsr6LVreonw5MPas_F-64">
          <mxGeometry x="30" y="340" width="350" height="120" as="geometry" />
        </mxCell>
        <mxCell id="OZHsr6LVreonw5MPas_F-67" value="Title" style="text;strokeColor=none;fillColor=none;html=1;fontSize=24;fontStyle=1;verticalAlign=middle;align=center;" vertex="1" parent="OZHsr6LVreonw5MPas_F-64">
          <mxGeometry x="460" y="310" width="100" height="40" as="geometry" />
        </mxCell>
        <mxCell id="OZHsr6LVreonw5MPas_F-68" value="Nyhed titel" style="text;strokeColor=none;fillColor=none;html=1;fontSize=24;fontStyle=1;verticalAlign=middle;align=center;" vertex="1" parent="OZHsr6LVreonw5MPas_F-64">
          <mxGeometry x="20" y="310" width="160" height="20" as="geometry" />
        </mxCell>
        <mxCell id="OZHsr6LVreonw5MPas_F-72" value="" style="html=1;points=[];align=center;image;fontSize=12;image=img/lib/azure2/general/Image.svg;" vertex="1" parent="OZHsr6LVreonw5MPas_F-64">
          <mxGeometry x="600" y="60" width="180" height="120" as="geometry" />
        </mxCell>
        <mxCell id="OZHsr6LVreonw5MPas_F-74" value="" style="html=1;points=[];align=center;image;fontSize=12;image=img/lib/azure2/general/Image.svg;" vertex="1" parent="OZHsr6LVreonw5MPas_F-64">
          <mxGeometry x="600" y="264.25" width="180" height="120" as="geometry" />
        </mxCell>
        <mxCell id="OZHsr6LVreonw5MPas_F-75" value="" style="html=1;points=[];align=center;image;fontSize=12;image=img/lib/azure2/general/Image.svg;" vertex="1" parent="OZHsr6LVreonw5MPas_F-64">
          <mxGeometry x="403.90999999999997" y="264.25" width="180" height="120" as="geometry" />
        </mxCell>
        <mxCell id="OZHsr6LVreonw5MPas_F-76" value="" style="html=1;points=[];align=center;image;fontSize=12;image=img/lib/azure2/general/Image.svg;" vertex="1" parent="OZHsr6LVreonw5MPas_F-64">
          <mxGeometry x="403.90999999999997" y="60" width="180" height="120" as="geometry" />
        </mxCell>
        <mxCell id="OZHsr6LVreonw5MPas_F-77" value="Lorem ipsum dolor sit amet, consectetur adipisicing elit, sed do eiusmod tempor incididunt ut labore et dolore magna aliqua.&amp;nbsp;" style="text;spacingTop=-5;whiteSpace=wrap;html=1;align=left;fontSize=12;fontFamily=Helvetica;fillColor=none;strokeColor=none;" vertex="1" parent="OZHsr6LVreonw5MPas_F-64">
          <mxGeometry x="413" y="180" width="167" height="70" as="geometry" />
        </mxCell>
        <mxCell id="OZHsr6LVreonw5MPas_F-78" value="Lorem ipsum dolor sit amet, consectetur adipisicing elit, sed do eiusmod tempor incididunt ut labore et dolore magna aliqua.&amp;nbsp;" style="text;spacingTop=-5;whiteSpace=wrap;html=1;align=left;fontSize=12;fontFamily=Helvetica;fillColor=none;strokeColor=none;" vertex="1" parent="OZHsr6LVreonw5MPas_F-64">
          <mxGeometry x="600" y="180" width="167" height="70" as="geometry" />
        </mxCell>
        <mxCell id="OZHsr6LVreonw5MPas_F-79" value="Lorem ipsum dolor sit amet, consectetur adipisicing elit, sed do eiusmod tempor incididunt ut labore et dolore magna aliqua.&amp;nbsp;" style="text;spacingTop=-5;whiteSpace=wrap;html=1;align=left;fontSize=12;fontFamily=Helvetica;fillColor=none;strokeColor=none;" vertex="1" parent="OZHsr6LVreonw5MPas_F-64">
          <mxGeometry x="413" y="384.25" width="167" height="70" as="geometry" />
        </mxCell>
        <mxCell id="OZHsr6LVreonw5MPas_F-80" value="Lorem ipsum dolor sit amet, consectetur adipisicing elit, sed do eiusmod tempor incididunt ut labore et dolore magna aliqua.&amp;nbsp;" style="text;spacingTop=-5;whiteSpace=wrap;html=1;align=left;fontSize=12;fontFamily=Helvetica;fillColor=none;strokeColor=none;" vertex="1" parent="OZHsr6LVreonw5MPas_F-64">
          <mxGeometry x="600" y="384.25" width="167" height="70" as="geometry" />
        </mxCell>
        <mxCell id="OZHsr6LVreonw5MPas_F-89" value="Projekter" style="strokeColor=inherit;fillColor=inherit;gradientColor=inherit;strokeWidth=1;shadow=0;dashed=0;align=center;html=1;shape=mxgraph.mockup.forms.rrect;rSize=0;fontSize=10;fontColor=#666666;" vertex="1" parent="OZHsr6LVreonw5MPas_F-64">
          <mxGeometry x="650" y="15" width="50" height="10" as="geometry" />
        </mxCell>
        <mxCell id="OZHsr6LVreonw5MPas_F-88" value="Forside" style="strokeColor=inherit;fillColor=inherit;gradientColor=inherit;strokeWidth=1;shadow=0;dashed=0;align=center;html=1;shape=mxgraph.mockup.forms.rrect;rSize=0;fontSize=11;fontColor=#666666;" vertex="1" parent="OZHsr6LVreonw5MPas_F-64">
          <mxGeometry x="590" y="15" width="51" height="10" as="geometry" />
        </mxCell>
        <mxCell id="OZHsr6LVreonw5MPas_F-87" value="Om os" style="strokeColor=inherit;fillColor=inherit;gradientColor=inherit;strokeWidth=1;shadow=0;dashed=0;align=center;html=1;shape=mxgraph.mockup.forms.rrect;rSize=0;fontSize=11;fontColor=#666666;" vertex="1" parent="OZHsr6LVreonw5MPas_F-64">
          <mxGeometry x="750" y="15" width="40" height="10" as="geometry" />
        </mxCell>
        <mxCell id="OZHsr6LVreonw5MPas_F-85" value="Team" style="strokeColor=inherit;fillColor=inherit;gradientColor=inherit;strokeWidth=1;shadow=0;dashed=0;align=center;html=1;shape=mxgraph.mockup.forms.rrect;rSize=0;fontSize=11;fontColor=#666666;" vertex="1" parent="OZHsr6LVreonw5MPas_F-64">
          <mxGeometry x="710" y="15" width="29" height="10" as="geometry" />
        </mxCell>
        <mxCell id="OZHsr6LVreonw5MPas_F-90" value="Title" style="text;strokeColor=none;fillColor=none;html=1;fontSize=24;fontStyle=1;verticalAlign=middle;align=center;" vertex="1" parent="OZHsr6LVreonw5MPas_F-64">
          <mxGeometry x="40" width="100" height="40" as="geometry" />
        </mxCell>
        <mxCell id="OZHsr6LVreonw5MPas_F-70" value="" style="aspect=fixed;html=1;points=[];align=center;image;fontSize=12;image=img/lib/azure2/general/Image.svg;" vertex="1" parent="OZHsr6LVreonw5MPas_F-64">
          <mxGeometry x="30" y="62.5" width="360" height="247.5" as="geometry" />
        </mxCell>
      </root>
    </mxGraphModel>
  </diagram>
</mxfile>
